<svg xmlns="http://www.w3.org/2000/svg" width="30" viewBox="0 0 30 30" height="30" version="1.0"><defs><clipPath id="a"><path d="M 2.117188 1.632812 L 27.882812 1.632812 L 27.882812 27.398438 L 2.117188 27.398438 Z M 2.117188 1.632812"/></clipPath><clipPath id="b"><path d="M 27.882812 14.515625 C 27.882812 21.632812 22.113281 27.398438 15 27.398438 C 7.886719 27.398438 2.117188 21.632812 2.117188 14.515625 C 2.117188 7.402344 7.886719 1.632812 15 1.632812 C 22.113281 1.632812 27.882812 7.402344 27.882812 14.515625 Z M 27.882812 14.515625"/></clipPath><clipPath id="c"><path d="M 6.953125 6.835938 L 15 6.835938 L 15 15 L 6.953125 15 Z M 6.953125 6.835938"/></clipPath><clipPath id="d"><path d="M 6.953125 14 L 15 14 L 15 22.078125 L 6.953125 22.078125 Z M 6.953125 14"/></clipPath><clipPath id="e"><path d="M 15 6.835938 L 22.921875 6.835938 L 22.921875 15 L 15 15 Z M 15 6.835938"/></clipPath><clipPath id="f"><path d="M 15 14 L 22.921875 14 L 22.921875 22.078125 L 15 22.078125 Z M 15 14"/></clipPath></defs><g clip-path="url(#a)"><g clip-path="url(#b)"><path fill="#D9D9D9" d="M 2.117188 1.632812 L 27.882812 1.632812 L 27.882812 27.398438 L 2.117188 27.398438 Z M 2.117188 1.632812"/></g></g><g clip-path="url(#c)"><path fill="#5E17EB" d="M 6.953125 7.566406 C 6.953125 7.164062 7.28125 6.839844 7.679688 6.839844 L 13.851562 6.839844 C 14.25 6.839844 14.574219 7.164062 14.574219 7.566406 L 14.574219 13.371094 C 14.574219 13.769531 14.25 14.09375 13.851562 14.09375 L 7.679688 14.09375 C 7.28125 14.09375 6.953125 13.769531 6.953125 13.371094 Z M 8.40625 8.289062 L 8.40625 12.644531 L 13.125 12.644531 L 13.125 8.289062 Z M 8.40625 8.289062" fill-rule="evenodd"/></g><g clip-path="url(#d)"><path fill="#5E17EB" d="M 6.953125 15.546875 C 6.953125 15.144531 7.28125 14.820312 7.679688 14.820312 L 13.851562 14.820312 C 14.25 14.820312 14.574219 15.144531 14.574219 15.546875 L 14.574219 21.351562 C 14.574219 21.75 14.25 22.074219 13.851562 22.074219 L 7.679688 22.074219 C 7.28125 22.074219 6.953125 21.75 6.953125 21.351562 Z M 8.40625 16.273438 L 8.40625 20.625 L 13.125 20.625 L 13.125 16.273438 Z M 8.40625 16.273438" fill-rule="evenodd"/></g><g clip-path="url(#e)"><path fill="#5E17EB" d="M 15.300781 7.566406 C 15.300781 7.164062 15.625 6.839844 16.027344 6.839844 L 22.195312 6.839844 C 22.597656 6.839844 22.921875 7.164062 22.921875 7.566406 L 22.921875 13.371094 C 22.921875 13.769531 22.597656 14.09375 22.195312 14.09375 L 16.027344 14.09375 C 15.625 14.09375 15.300781 13.769531 15.300781 13.371094 Z M 16.753906 8.289062 L 16.753906 12.644531 L 21.472656 12.644531 L 21.472656 8.289062 Z M 16.753906 8.289062" fill-rule="evenodd"/></g><g clip-path="url(#f)"><path fill="#5E17EB" d="M 15.300781 15.546875 C 15.300781 15.144531 15.625 14.820312 16.027344 14.820312 L 22.195312 14.820312 C 22.597656 14.820312 22.921875 15.144531 22.921875 15.546875 L 22.921875 21.351562 C 22.921875 21.75 22.597656 22.074219 22.195312 22.074219 L 16.027344 22.074219 C 15.625 22.074219 15.300781 21.75 15.300781 21.351562 Z M 16.753906 16.273438 L 16.753906 20.625 L 21.472656 20.625 L 21.472656 16.273438 Z M 16.753906 16.273438" fill-rule="evenodd"/></g></svg>