<svg xmlns="http://www.w3.org/2000/svg" width="30" viewBox="0 0 30 30" height="30" version="1.0"><defs><clipPath id="a"><path d="M 2.117188 1.632812 L 27.882812 1.632812 L 27.882812 27.398438 L 2.117188 27.398438 Z M 2.117188 1.632812"/></clipPath><clipPath id="b"><path d="M 27.882812 14.515625 C 27.882812 21.632812 22.113281 27.398438 15 27.398438 C 7.886719 27.398438 2.117188 21.632812 2.117188 14.515625 C 2.117188 7.402344 7.886719 1.632812 15 1.632812 C 22.113281 1.632812 27.882812 7.402344 27.882812 14.515625 Z M 27.882812 14.515625"/></clipPath><clipPath id="c"><path d="M 7.097656 11 L 23.066406 11 L 23.066406 16 L 7.097656 16 Z M 7.097656 11"/></clipPath><clipPath id="d"><path d="M 7.097656 15 L 23 15 L 23 24.042969 L 7.097656 24.042969 Z M 7.097656 15"/></clipPath><clipPath id="e"><path d="M 13 15 L 17 15 L 17 24.042969 L 13 24.042969 Z M 13 15"/></clipPath></defs><g clip-path="url(#a)"><g clip-path="url(#b)"><path fill="#D9D9D9" d="M 2.117188 1.632812 L 27.882812 1.632812 L 27.882812 27.398438 L 2.117188 27.398438 Z M 2.117188 1.632812"/></g></g><path fill="#F8A716" d="M 14.289062 11.574219 C 14.289062 11.574219 9.804688 12.210938 9.476562 10.820312 C 9.640625 10.109375 9.566406 9.664062 9.980469 8.71875 C 12.664062 7.671875 14.546875 10.683594 14.546875 10.683594 L 14.289062 11.574219"/><path fill="#FBC512" d="M 14.289062 11.574219 C 14.289062 11.574219 11.980469 7.625 9.476562 10.820312 C 9.324219 9.90625 9.433594 8.441406 9.699219 7.53125 C 12.449219 5.171875 14.839844 10.515625 14.839844 10.515625 L 14.289062 11.574219"/><path fill="#F8A716" d="M 15.886719 11.574219 C 15.886719 11.574219 20.371094 12.210938 20.699219 10.820312 C 20.535156 10.109375 20.609375 9.664062 20.191406 8.71875 C 17.511719 7.671875 15.628906 10.683594 15.628906 10.683594 L 15.886719 11.574219"/><path fill="#FBC512" d="M 15.886719 11.574219 C 15.886719 11.574219 18.199219 7.625 20.699219 10.820312 C 20.851562 9.90625 20.742188 8.441406 20.476562 7.53125 C 17.726562 5.171875 15.335938 10.515625 15.335938 10.515625 L 15.886719 11.574219"/><path fill="#FDDD0F" d="M 16.175781 11.34375 C 15.953125 11.671875 14.089844 11.761719 14.015625 11.34375 C 13.941406 10.921875 13.683594 9.773438 14.015625 9.460938 C 14.34375 9.148438 15.882812 9.1875 16.175781 9.460938 C 16.46875 9.730469 16.394531 11.011719 16.175781 11.34375"/><g clip-path="url(#c)"><path fill="#8C52FF" d="M 23.066406 15.265625 L 7.109375 15.265625 L 7.109375 11.5 L 23.066406 11.5 L 23.066406 15.265625"/></g><g clip-path="url(#d)"><path fill="#5E17EB" d="M 22.257812 24.042969 L 7.917969 24.042969 L 7.917969 15.265625 L 22.257812 15.265625 L 22.257812 24.042969"/></g><path fill="#FDDD0F" d="M 16.789062 15.265625 L 13.382812 15.265625 L 13.382812 11.5 L 16.789062 11.5 L 16.789062 15.265625"/><g clip-path="url(#e)"><path fill="#FBC512" d="M 16.617188 24.042969 L 13.558594 24.042969 L 13.558594 15.265625 L 16.617188 15.265625 L 16.617188 24.042969"/></g></svg>