<svg xmlns="http://www.w3.org/2000/svg" width="30" viewBox="0 0 30 30" height="30" version="1.0"><defs><clipPath id="a"><path d="M 2.117188 1.632812 L 27.882812 1.632812 L 27.882812 27.398438 L 2.117188 27.398438 Z M 2.117188 1.632812"/></clipPath><clipPath id="b"><path d="M 27.882812 14.515625 C 27.882812 21.632812 22.113281 27.398438 15 27.398438 C 7.886719 27.398438 2.117188 21.632812 2.117188 14.515625 C 2.117188 7.402344 7.886719 1.632812 15 1.632812 C 22.113281 1.632812 27.882812 7.402344 27.882812 14.515625 Z M 27.882812 14.515625"/></clipPath><clipPath id="c"><path d="M 8.21875 5 L 22 5 L 22 24.703125 L 8.21875 24.703125 Z M 8.21875 5"/></clipPath></defs><g clip-path="url(#a)"><g clip-path="url(#b)"><path fill="#D9D9D9" d="M 2.117188 1.632812 L 27.882812 1.632812 L 27.882812 27.398438 L 2.117188 27.398438 Z M 2.117188 1.632812"/></g></g><g clip-path="url(#c)"><path fill="#5E17EB" d="M 15.496094 21.363281 C 15.734375 21.6875 16.230469 22.625 15.492188 23.5625 C 14.613281 24.679688 12.207031 24.523438 12.210938 22.257812 L 12.210938 21.824219 C 12.921875 20.226562 14.835938 20.335938 15.496094 21.363281 Z M 19.734375 7.363281 C 17.089844 4.574219 10.203125 4.398438 8.597656 9.339844 C 8.226562 10.472656 8.238281 11.710938 8.238281 11.710938 L 11.339844 11.667969 C 11.554688 9.691406 12.613281 8.347656 14.78125 8.660156 C 16.039062 8.839844 17.132812 9.824219 16.636719 11.074219 C 16.160156 12.273438 14.714844 11.945312 13.285156 13.679688 C 12.042969 15.1875 12.425781 18.378906 12.464844 19.417969 L 15.308594 19.492188 C 15.34375 18.660156 15.46875 17.308594 15.773438 16.246094 C 16.148438 14.925781 17.796875 14.398438 18.863281 13.917969 C 21.308594 12.808594 22.007812 9.761719 19.734375 7.363281 Z M 19.734375 7.363281"/><path fill="#141313" d="M 16.105469 21.804688 C 16.203125 22.085938 16.253906 22.394531 16.230469 22.710938 C 16.207031 23.023438 16.105469 23.332031 15.945312 23.597656 L 15.886719 23.695312 L 15.820312 23.789062 C 15.796875 23.820312 15.769531 23.851562 15.746094 23.882812 L 15.707031 23.929688 C 15.691406 23.945312 15.679688 23.957031 15.664062 23.972656 C 15.554688 24.09375 15.425781 24.191406 15.292969 24.277344 L 15.191406 24.339844 C 15.15625 24.359375 15.121094 24.375 15.085938 24.394531 C 15.066406 24.402344 15.050781 24.410156 15.03125 24.417969 L 14.976562 24.441406 C 14.941406 24.457031 14.90625 24.472656 14.867188 24.484375 C 14.71875 24.535156 14.566406 24.566406 14.414062 24.585938 C 14.058594 24.621094 13.695312 24.605469 13.351562 24.5 C 13.179688 24.445312 13.011719 24.371094 12.859375 24.273438 C 12.707031 24.171875 12.570312 24.050781 12.457031 23.910156 C 12.40625 23.84375 12.332031 23.757812 12.265625 23.648438 C 12.246094 23.621094 12.230469 23.589844 12.214844 23.5625 C 12.199219 23.53125 12.183594 23.5 12.164062 23.46875 C 12.148438 23.433594 12.136719 23.402344 12.121094 23.367188 C 12.105469 23.332031 12.089844 23.296875 12.078125 23.261719 C 12.066406 23.222656 12.054688 23.1875 12.042969 23.148438 C 12.039062 23.128906 12.03125 23.109375 12.027344 23.089844 C 12.023438 23.070312 12.019531 23.050781 12.015625 23.03125 C 12.007812 22.992188 12 22.953125 11.992188 22.914062 C 11.984375 22.875 11.984375 22.835938 11.980469 22.796875 C 11.976562 22.753906 11.972656 22.714844 11.972656 22.675781 C 11.972656 22.636719 11.972656 22.597656 11.972656 22.558594 C 11.972656 22.476562 11.984375 22.402344 11.996094 22.328125 C 12 22.292969 11.996094 22.257812 12.078125 22.257812 C 12.164062 22.257812 12.199219 22.292969 12.207031 22.328125 C 12.21875 22.382812 12.226562 22.4375 12.242188 22.492188 C 12.257812 22.546875 12.269531 22.601562 12.277344 22.65625 C 12.316406 22.828125 12.367188 22.992188 12.4375 23.148438 C 12.511719 23.300781 12.605469 23.445312 12.71875 23.566406 C 12.941406 23.816406 13.25 23.976562 13.574219 24.03125 C 13.914062 24.089844 14.269531 24.054688 14.582031 23.9375 C 14.742188 23.878906 14.886719 23.796875 15.015625 23.695312 L 15.0625 23.65625 L 15.105469 23.613281 C 15.121094 23.601562 15.136719 23.585938 15.152344 23.574219 L 15.191406 23.527344 C 15.21875 23.5 15.238281 23.464844 15.261719 23.433594 C 15.285156 23.40625 15.308594 23.367188 15.328125 23.335938 C 15.515625 23.023438 15.589844 22.691406 15.539062 22.363281 C 15.515625 22.199219 15.464844 22.035156 15.386719 21.878906 C 15.347656 21.800781 15.304688 21.726562 15.257812 21.660156 C 15.246094 21.640625 15.230469 21.625 15.21875 21.609375 L 15.175781 21.550781 L 15.136719 21.496094 C 15.121094 21.480469 15.109375 21.46875 15.09375 21.453125 C 14.941406 21.285156 14.730469 21.160156 14.5 21.089844 C 14.273438 21.015625 14.023438 20.992188 13.785156 21.019531 C 13.683594 21.03125 13.542969 21.050781 13.386719 21.09375 C 13.234375 21.136719 13.070312 21.207031 12.921875 21.304688 C 12.773438 21.394531 12.644531 21.511719 12.546875 21.609375 C 12.523438 21.632812 12.503906 21.65625 12.484375 21.679688 C 12.460938 21.703125 12.445312 21.722656 12.429688 21.738281 C 12.398438 21.773438 12.375 21.796875 12.363281 21.808594 C 12.332031 21.828125 12.300781 21.875 12.207031 21.820312 C 12.117188 21.773438 12.125 21.714844 12.136719 21.671875 L 12.175781 21.5625 C 12.191406 21.523438 12.203125 21.488281 12.222656 21.453125 C 12.257812 21.378906 12.292969 21.308594 12.339844 21.242188 C 12.59375 20.84375 13.019531 20.527344 13.503906 20.398438 C 13.988281 20.269531 14.519531 20.316406 14.984375 20.53125 C 15.117188 20.59375 15.246094 20.667969 15.363281 20.757812 C 15.484375 20.847656 15.59375 20.949219 15.691406 21.066406 C 15.714844 21.09375 15.734375 21.121094 15.753906 21.148438 L 15.785156 21.191406 L 15.796875 21.207031 L 15.816406 21.230469 C 15.859375 21.289062 15.898438 21.347656 15.933594 21.410156 C 16.003906 21.535156 16.0625 21.667969 16.105469 21.804688 Z M 21.511719 11.550781 C 21.460938 11.785156 21.378906 12.015625 21.285156 12.238281 L 21.210938 12.402344 C 21.1875 12.460938 21.15625 12.511719 21.128906 12.566406 C 21.074219 12.675781 21.003906 12.773438 20.941406 12.878906 C 20.667969 13.28125 20.332031 13.640625 19.9375 13.929688 C 19.746094 14.078125 19.539062 14.203125 19.324219 14.316406 C 19.21875 14.371094 19.105469 14.429688 19.003906 14.46875 C 18.902344 14.515625 18.804688 14.558594 18.707031 14.601562 C 18.3125 14.769531 17.933594 14.925781 17.589844 15.109375 C 17.441406 15.183594 17.269531 15.277344 17.097656 15.390625 C 17.007812 15.445312 16.921875 15.503906 16.835938 15.570312 C 16.753906 15.636719 16.667969 15.707031 16.59375 15.785156 C 16.441406 15.941406 16.3125 16.121094 16.226562 16.324219 L 16.210938 16.363281 C 16.207031 16.375 16.199219 16.394531 16.195312 16.410156 L 16.160156 16.503906 C 16.136719 16.566406 16.117188 16.632812 16.097656 16.699219 C 16.054688 16.828125 16.015625 16.960938 15.980469 17.089844 C 15.835938 17.613281 15.730469 18.121094 15.652344 18.515625 C 15.574219 18.910156 15.527344 19.191406 15.5 19.277344 C 15.472656 19.371094 15.453125 19.523438 15.304688 19.488281 C 15.277344 19.484375 15.257812 19.472656 15.242188 19.460938 C 15.214844 19.472656 15.183594 19.480469 15.152344 19.480469 C 14.894531 19.496094 14.640625 19.515625 14.386719 19.515625 L 13.421875 19.515625 L 12.941406 19.511719 L 12.445312 19.511719 L 12.40625 19.507812 L 12.378906 19.507812 C 12.375 19.507812 12.371094 19.511719 12.371094 19.507812 C 12.363281 19.367188 12.351562 19.222656 12.339844 19.078125 L 12.308594 18.707031 C 12.289062 18.472656 12.273438 18.230469 12.257812 17.992188 C 12.230469 17.515625 12.214844 17.035156 12.230469 16.550781 C 12.242188 16.128906 12.28125 15.699219 12.363281 15.277344 C 12.402344 15.0625 12.453125 14.851562 12.523438 14.644531 C 12.589844 14.433594 12.671875 14.226562 12.773438 14.027344 L 12.855469 13.878906 C 12.882812 13.832031 12.914062 13.78125 12.945312 13.734375 C 12.972656 13.6875 13.007812 13.640625 13.042969 13.59375 L 13.09375 13.523438 L 13.144531 13.460938 C 13.285156 13.289062 13.433594 13.125 13.59375 12.972656 C 13.910156 12.664062 14.277344 12.394531 14.660156 12.171875 C 14.867188 12.046875 15.082031 11.941406 15.285156 11.835938 C 15.386719 11.78125 15.488281 11.730469 15.582031 11.675781 C 15.675781 11.625 15.765625 11.570312 15.847656 11.511719 C 16.007812 11.398438 16.128906 11.273438 16.214844 11.121094 C 16.226562 11.105469 16.234375 11.082031 16.246094 11.0625 C 16.253906 11.042969 16.265625 11.023438 16.273438 11.003906 L 16.296875 10.941406 L 16.320312 10.875 C 16.347656 10.785156 16.367188 10.699219 16.375 10.609375 C 16.382812 10.523438 16.382812 10.4375 16.371094 10.351562 C 16.359375 10.269531 16.339844 10.1875 16.308594 10.105469 C 16.246094 9.945312 16.144531 9.796875 16.015625 9.667969 C 15.753906 9.40625 15.382812 9.21875 14.996094 9.128906 C 14.925781 9.113281 14.851562 9.097656 14.777344 9.089844 L 14.722656 9.082031 C 14.707031 9.078125 14.683594 9.078125 14.667969 9.074219 L 14.550781 9.0625 C 14.394531 9.050781 14.242188 9.042969 14.089844 9.054688 C 13.789062 9.066406 13.503906 9.125 13.246094 9.234375 C 12.988281 9.34375 12.761719 9.503906 12.570312 9.710938 C 12.382812 9.917969 12.226562 10.167969 12.105469 10.441406 C 12.042969 10.585938 11.96875 10.769531 11.902344 10.984375 C 11.886719 11.039062 11.871094 11.09375 11.855469 11.152344 C 11.839844 11.207031 11.824219 11.265625 11.808594 11.328125 L 11.804688 11.351562 L 11.800781 11.359375 L 11.800781 11.367188 C 11.800781 11.367188 11.796875 11.378906 11.796875 11.382812 C 11.792969 11.414062 11.785156 11.445312 11.78125 11.476562 C 11.769531 11.542969 11.757812 11.605469 11.75 11.667969 C 11.726562 11.792969 11.707031 11.921875 11.6875 12.050781 C 11.539062 12.046875 11.390625 12.042969 11.238281 12.042969 C 11.167969 12.039062 11.09375 12.039062 11.019531 12.039062 L 10.964844 12.035156 L 10.929688 12.035156 L 10.867188 12.03125 C 10.707031 12.023438 10.542969 12.015625 10.386719 12.003906 C 10.066406 11.988281 9.761719 11.96875 9.484375 11.949219 C 8.9375 11.910156 8.523438 11.875 8.421875 11.851562 C 8.347656 11.835938 8.21875 11.828125 8.242188 11.707031 C 8.246094 11.675781 8.257812 11.652344 8.277344 11.632812 C 8.257812 11.601562 8.25 11.5625 8.25 11.519531 C 8.234375 11.207031 8.230469 10.894531 8.261719 10.582031 C 8.316406 10.089844 8.40625 9.601562 8.566406 9.125 C 8.648438 8.890625 8.738281 8.65625 8.847656 8.429688 C 8.957031 8.207031 9.082031 7.988281 9.222656 7.777344 C 9.503906 7.355469 9.847656 6.976562 10.234375 6.644531 C 10.625 6.3125 11.0625 6.039062 11.523438 5.8125 C 12.011719 5.578125 12.53125 5.40625 13.0625 5.292969 C 13.59375 5.183594 14.136719 5.128906 14.679688 5.125 C 15.226562 5.121094 15.769531 5.167969 16.304688 5.261719 C 16.84375 5.359375 17.375 5.5 17.886719 5.695312 C 18.453125 5.910156 19 6.195312 19.496094 6.574219 C 19.554688 6.621094 19.617188 6.667969 19.675781 6.71875 L 19.765625 6.792969 L 19.855469 6.871094 C 19.914062 6.921875 19.96875 6.976562 20.023438 7.03125 C 20.082031 7.085938 20.128906 7.144531 20.183594 7.199219 C 20.292969 7.308594 20.386719 7.429688 20.488281 7.546875 C 20.582031 7.671875 20.675781 7.789062 20.761719 7.921875 C 20.851562 8.046875 20.929688 8.183594 21.007812 8.316406 L 21.117188 8.527344 C 21.15625 8.59375 21.183594 8.667969 21.21875 8.738281 C 21.34375 9.027344 21.445312 9.328125 21.515625 9.636719 C 21.65625 10.257812 21.660156 10.917969 21.511719 11.550781 Z M 20.441406 9.382812 C 20.234375 8.78125 19.871094 8.222656 19.410156 7.75 C 18.964844 7.285156 18.40625 6.925781 17.800781 6.652344 C 17.496094 6.515625 17.183594 6.398438 16.859375 6.304688 C 16.699219 6.257812 16.535156 6.21875 16.371094 6.179688 C 16.207031 6.144531 16.042969 6.109375 15.875 6.082031 C 15.210938 5.972656 14.535156 5.9375 13.859375 5.976562 C 13.082031 6.023438 12.316406 6.21875 11.628906 6.550781 C 10.9375 6.882812 10.328125 7.351562 9.839844 7.929688 C 9.726562 8.066406 9.582031 8.257812 9.441406 8.5 C 9.300781 8.742188 9.160156 9.03125 9.039062 9.355469 C 8.976562 9.519531 8.925781 9.6875 8.871094 9.863281 C 8.824219 10.042969 8.777344 10.222656 8.738281 10.410156 C 8.65625 10.785156 8.589844 11.171875 8.539062 11.542969 C 8.539062 11.546875 8.539062 11.550781 8.539062 11.558594 C 8.851562 11.527344 9.164062 11.503906 9.476562 11.484375 C 9.789062 11.46875 10.097656 11.453125 10.40625 11.4375 L 10.875 11.414062 L 10.929688 11.414062 C 10.945312 11.414062 10.945312 11.410156 10.949219 11.410156 L 10.960938 11.410156 L 11.007812 11.40625 C 11.039062 11.402344 11.074219 11.402344 11.097656 11.398438 C 11.101562 11.363281 11.101562 11.328125 11.105469 11.296875 L 11.113281 11.246094 L 11.132812 11.117188 C 11.164062 10.945312 11.199219 10.769531 11.25 10.601562 C 11.347656 10.257812 11.484375 9.921875 11.679688 9.605469 C 11.878906 9.296875 12.132812 9.003906 12.449219 8.785156 C 12.609375 8.675781 12.777344 8.582031 12.953125 8.507812 C 13.128906 8.433594 13.316406 8.378906 13.5 8.339844 C 13.808594 8.277344 14.121094 8.257812 14.425781 8.269531 C 14.503906 8.277344 14.578125 8.277344 14.65625 8.285156 L 14.769531 8.296875 C 14.804688 8.300781 14.84375 8.304688 14.882812 8.3125 C 15.039062 8.332031 15.195312 8.367188 15.347656 8.410156 C 15.652344 8.5 15.945312 8.632812 16.214844 8.816406 C 16.480469 9 16.722656 9.242188 16.894531 9.542969 C 16.984375 9.695312 17.054688 9.867188 17.097656 10.042969 C 17.140625 10.222656 17.15625 10.40625 17.148438 10.585938 C 17.136719 10.765625 17.101562 10.941406 17.046875 11.109375 C 16.996094 11.273438 16.917969 11.441406 16.816406 11.597656 C 16.714844 11.753906 16.582031 11.890625 16.445312 12.003906 C 16.308594 12.121094 16.164062 12.210938 16.023438 12.292969 C 15.742188 12.453125 15.480469 12.570312 15.234375 12.703125 C 14.988281 12.828125 14.757812 12.964844 14.542969 13.121094 C 14.328125 13.273438 14.132812 13.445312 13.945312 13.632812 C 13.898438 13.679688 13.855469 13.726562 13.808594 13.777344 C 13.761719 13.824219 13.722656 13.875 13.675781 13.925781 L 13.644531 13.964844 L 13.5625 14.070312 C 13.527344 14.117188 13.492188 14.167969 13.457031 14.21875 C 13.328125 14.429688 13.21875 14.660156 13.128906 14.910156 C 13.023438 15.195312 12.949219 15.5 12.898438 15.8125 C 12.847656 16.125 12.816406 16.441406 12.796875 16.765625 C 12.765625 17.410156 12.78125 18.0625 12.792969 18.722656 C 12.796875 18.761719 12.796875 18.808594 12.796875 18.859375 C 12.796875 18.882812 12.800781 18.910156 12.800781 18.933594 C 12.800781 18.949219 12.800781 18.960938 12.800781 18.976562 C 12.800781 18.980469 12.800781 18.980469 12.800781 18.980469 L 12.800781 18.988281 C 12.800781 19.015625 12.800781 19.042969 12.800781 19.074219 C 12.820312 19.078125 12.84375 19.078125 12.867188 19.082031 L 12.898438 19.082031 L 12.914062 19.085938 C 12.964844 19.085938 13.019531 19.089844 13.074219 19.089844 C 13.289062 19.101562 13.515625 19.113281 13.75 19.125 C 14.207031 19.152344 14.691406 19.191406 15.144531 19.246094 C 15.144531 19.226562 15.144531 19.207031 15.140625 19.1875 C 15.128906 18.777344 15.144531 18.363281 15.175781 17.949219 C 15.203125 17.644531 15.238281 17.339844 15.285156 17.035156 L 15.320312 16.804688 L 15.363281 16.578125 C 15.378906 16.5 15.394531 16.425781 15.414062 16.347656 L 15.441406 16.234375 C 15.449219 16.195312 15.457031 16.160156 15.472656 16.117188 C 15.519531 15.949219 15.585938 15.78125 15.667969 15.628906 C 15.753906 15.476562 15.855469 15.332031 15.96875 15.203125 C 16.191406 14.941406 16.453125 14.726562 16.726562 14.542969 C 17.269531 14.179688 17.855469 13.929688 18.40625 13.683594 C 18.6875 13.5625 18.925781 13.445312 19.15625 13.292969 C 19.386719 13.144531 19.59375 12.972656 19.78125 12.777344 C 20.203125 12.328125 20.484375 11.765625 20.585938 11.175781 C 20.691406 10.582031 20.632812 9.964844 20.441406 9.382812 Z M 20.441406 9.382812"/></g></svg>